[Header]
FileType HTR
DataType HTRS
FileVersion 1
NumSegments 64
NumFrames 4
DataFrameRate 24
EulerRotationOrder ZYX
CalibrationUnits mm
RotationUnits Degrees
GlobalAxisofGravity Y
BoneLengthAxis Y
ScaleFactor 1.0
[SegmentNames&Hierarchy]
Hips	GLOBAL
Spine	Hips
Spine1	Spine
Spine2	Spine1
Neck	Spine2
Head	Neck
LeftEye	Head
RightEye	Head
LeftShoulder	Spine2
LeftArm	LeftShoulder
LeftForeArm	LeftArm
LeftHand	LeftForeArm
LeftHandThumb1	LeftHand
LeftHandThumb2	LeftHandThumb1
LeftHandThumb3	LeftHandThumb2
LeftHandThumb4	LeftHandThumb3
LeftHandIndex1	LeftHand
LeftHandIndex2	LeftHandIndex1
LeftHandIndex3	LeftHandIndex2
LeftHandIndex4	LeftHandIndex3
LeftHandMiddle1	LeftHand
LeftHandMiddle2	LeftHandMiddle1
LeftHandMiddle3	LeftHandMiddle2
LeftHandMiddle4	LeftHandMiddle3
LeftHandRing1	LeftHand
LeftHandRing2	LeftHandRing1
LeftHandRing3	LeftHandRing2
LeftHandRing4	LeftHandRing3
LeftHandPinky1	LeftHand
LeftHandPinky2	LeftHandPinky1
LeftHandPinky3	LeftHandPinky2
LeftHandPinky4	LeftHandPinky3
RightShoulder	Spine2
RightArm	RightShoulder
RightForeArm	RightArm
RightHand	RightForeArm
RightHandPinky1	RightHand
RightHandPinky2	RightHandPinky1
RightHandPinky3	RightHandPinky2
RightHandPinky4	RightHandPinky3
RightHandRing1	RightHand
RightHandRing2	RightHandRing1
RightHandRing3	RightHandRing2
RightHandRing4	RightHandRing3
RightHandMiddle1	RightHand
RightHandMiddle2	RightHandMiddle1
RightHandMiddle3	RightHandMiddle2
RightHandMiddle4	RightHandMiddle3
RightHandIndex1	RightHand
RightHandIndex2	RightHandIndex1
RightHandIndex3	RightHandIndex2
RightHandIndex4	RightHandIndex3
RightHandThumb1	RightHand
RightHandThumb2	RightHandThumb1
RightHandThumb3	RightHandThumb2
RightHandThumb4	RightHandThumb3
LeftUpLeg	Hips
LeftLeg	LeftUpLeg
LeftFoot	LeftLeg
LeftToeBase	LeftFoot
RightUpLeg	Hips
RightLeg	RightUpLeg
RightFoot	RightLeg
RightToeBase	RightFoot
[BasePosition]
Hips	0	0	0	0	0	0	1
Spine	0	0	0	0	0	0	1
Spine1	0	0	0	0	0	0	1
Spine2	0	0	0	0	0	0	1
Neck	0	0	0	0	0	0	1
Head	0	0	0	0	0	0	1
LeftEye	0	0	0	0	0	0	1
RightEye	0	0	0	0	0	0	1
LeftShoulder	0	0	0	0	0	0	1
LeftArm	0	0	0	0	0	0	1
LeftForeArm	0	0	0	0	0	0	1
LeftHand	0	0	0	0	0	0	1
LeftHandThumb1	0	0	0	0	0	0	1
LeftHandThumb2	0	0	0	0	0	0	1
LeftHandThumb3	0	0	0	0	0	0	1
LeftHandThumb4	0	0	0	0	0	0	1
LeftHandIndex1	0	0	0	0	0	0	1
LeftHandIndex2	0	0	0	0	0	0	1
LeftHandIndex3	0	0	0	0	0	0	1
LeftHandIndex4	0	0	0	0	0	0	1
LeftHandMiddle1	0	0	0	0	0	0	1
LeftHandMiddle2	0	0	0	0	0	0	1
LeftHandMiddle3	0	0	0	0	0	0	1
LeftHandMiddle4	0	0	0	0	0	0	1
LeftHandRing1	0	0	0	0	0	0	1
LeftHandRing2	0	0	0	0	0	0	1
LeftHandRing3	0	0	0	0	0	0	1
LeftHandRing4	0	0	0	0	0	0	1
LeftHandPinky1	0	0	0	0	0	0	1
LeftHandPinky2	0	0	0	0	0	0	1
LeftHandPinky3	0	0	0	0	0	0	1
LeftHandPinky4	0	0	0	0	0	0	1
RightShoulder	0	0	0	0	0	0	1
RightArm	0	0	0	0	0	0	1
RightForeArm	0	0	0	0	0	0	1
RightHand	0	0	0	0	0	0	1
RightHandPinky1	0	0	0	0	0	0	1
RightHandPinky2	0	0	0	0	0	0	1
RightHandPinky3	0	0	0	0	0	0	1
RightHandPinky4	0	0	0	0	0	0	1
RightHandRing1	0	0	0	0	0	0	1
RightHandRing2	0	0	0	0	0	0	1
RightHandRing3	0	0	0	0	0	0	1
RightHandRing4	0	0	0	0	0	0	1
RightHandMiddle1	0	0	0	0	0	0	1
RightHandMiddle2	0	0	0	0	0	0	1
RightHandMiddle3	0	0	0	0	0	0	1
RightHandMiddle4	0	0	0	0	0	0	1
RightHandIndex1	0	0	0	0	0	0	1
RightHandIndex2	0	0	0	0	0	0	1
RightHandIndex3	0	0	0	0	0	0	1
RightHandIndex4	0	0	0	0	0	0	1
RightHandThumb1	0	0	0	0	0	0	1
RightHandThumb2	0	0	0	0	0	0	1
RightHandThumb3	0	0	0	0	0	0	1
RightHandThumb4	0	0	0	0	0	0	1
LeftUpLeg	0	0	0	0	0	0	1
LeftLeg	0	0	0	0	0	0	1
LeftFoot	0	0	0	0	0	0	1
LeftToeBase	0	0	0	0	0	0	1
RightUpLeg	0	0	0	0	0	0	1
RightLeg	0	0	0	0	0	0	1
RightFoot	0	0	0	0	0	0	1
RightToeBase	0	0	0	0	0	0	1
[Hips]
101	-3.158845425	1034.891357	21.15904617	-3.952889919	-5.225544453	-2.722198963	1.0
102	-3.110394716	1034.934326	21.16295052	-3.942497492	-5.224430084	-2.731432438	1.0
103	-3.067290783	1034.96814	21.16868591	-3.931113958	-5.224374294	-2.741090298	1.0
104	-3.050564766	1034.952148	21.18304825	-3.914576054	-5.230194569	-2.752838612	1.0
[Spine]
101	0	101.8159943	1.315000057	2.800276756	1.59655869	2.92881155	1.0
102	0	101.8159943	1.315000057	2.787324905	1.597877264	2.920703173	1.0
103	0	101.8159943	1.315000057	2.776594162	1.598567128	2.912764549	1.0
104	0	101.8159943	1.315000057	2.777418852	1.595702529	2.905723095	1.0
[Spine1]
101	0	100.8349991	-10.00800037	0.9906381369	0.3964634836	1.620113492	1.0
102	0	100.8349991	-10.00800037	0.9870429039	0.3968285322	1.616808057	1.0
103	0	100.8349991	-10.00800037	0.9839912057	0.3969585896	1.613645196	1.0
104	0	100.8349991	-10.00800037	0.9837945104	0.3957499266	1.611236811	1.0
[Spine2]
101	0	91	-13.73399925	0.9652036428	0.4190371633	1.624039292	1.0
102	0	91	-13.73399925	0.9616004825	0.4193953276	1.62076056	1.0
103	0	91	-13.73399925	0.9585422277	0.4195196629	1.617619276	1.0
104	0	91	-13.73399925	0.9583461881	0.4183109403	1.615208387	1.0
[Neck]
101	0	166.7169952	-25.16200066	5.129207611	-0.2284815013	0.6017956734	1.0
102	0	166.7169952	-25.16200066	5.114714622	-0.2277952433	0.5932920575	1.0
103	0	166.7169952	-25.16200066	5.101575375	-0.2262205184	0.5843018889	1.0
104	0	166.7169952	-25.16200066	5.095178127	-0.2199189663	0.5732988715	1.0
[Head]
101	0	96.17900085	16.84999847	-7.396523952	1.249104381	-0.3357513845	1.0
102	0	96.17900085	16.84999847	-7.406852722	1.237211108	-0.3278484941	1.0
103	0	96.17900085	16.84999847	-7.420595169	1.229542494	-0.3237041235	1.0
104	0	96.17900085	16.84999847	-7.4532938	1.244902253	-0.3391973078	1.0
[LeftEye]
101	30.6760006	64.09500122	92.83599854	0	0	0	1.0
102	30.6760006	64.09500122	92.83599854	0	0	0	1.0
103	30.6760006	64.09500122	92.83599854	0	0	0	1.0
104	30.6760006	64.09500122	92.83599854	0	0	0	1.0
[RightEye]
101	-30.6760006	64.09500122	92.83499908	0	0	0	1.0
102	-30.6760006	64.09500122	92.83499908	0	0	0	1.0
103	-30.6760006	64.09500122	92.83499908	0	0	0	1.0
104	-30.6760006	64.09500122	92.83499908	0	0	0	1.0
[LeftShoulder]
101	45.70400238	109.4599991	-26.28000069	4.715555668	-16.01406479	-12.44340706	1.0
102	45.70400238	109.4599991	-26.28000069	4.718624592	-16.01706886	-12.45962048	1.0
103	45.70400238	109.4599991	-26.28000069	4.721548557	-16.01760483	-12.47590542	1.0
104	45.70400238	109.4599991	-26.28000069	4.723556519	-16.0041256	-12.49207878	1.0
[LeftArm]
101	105.923996	-5.24600029	-22.32099915	20.17821884	-2.793294668	-72.26714325	1.0
102	105.923996	-5.24600029	-22.32099915	20.16971207	-2.769697189	-72.25478363	1.0
103	105.923996	-5.24600029	-22.32099915	20.16057587	-2.751629114	-72.24073792	1.0
104	105.923996	-5.24600029	-22.32099915	20.14922142	-2.762342215	-72.21831512	1.0
[LeftForeArm]
101	278.414978	-0.0009999999311	0	-1.097254335e-05	-1.42894578	-0.0002168538631	1.0
102	278.414978	-0.0009999999311	0	-8.278290807e-06	-1.426053286	-0.0002155847615	1.0
103	278.414978	-0.0009999999311	0	-5.853112725e-06	-1.423756242	-0.0002085813903	1.0
104	278.414978	-0.0009999999311	0	-5.838607194e-06	-1.424530029	-0.0001721480076	1.0
[LeftHand]
101	283.2879944	0	0	-31.94046783	-4.364934444	-5.219160557	1.0
102	283.2879944	0	0	-31.92838097	-4.357988834	-5.214170933	1.0
103	283.2879944	0	0	-31.91831207	-4.352362633	-5.203926086	1.0
104	283.2879944	0	0	-31.91858482	-4.353696346	-5.166165352	1.0
[LeftHandThumb1]
101	24.6609993	-15.75	26.8239994	-0.4889889657	2.201390743	4.818541527	1.0
102	24.6609993	-15.75	26.8239994	-0.4889889657	2.201390743	4.818541527	1.0
103	24.6609993	-15.75	26.8239994	-0.4889889657	2.201390743	4.818541527	1.0
104	24.6609993	-15.75	26.8239994	-0.4889889657	2.201390743	4.818541527	1.0
[LeftHandThumb2]
101	32.29800034	-18.64699936	18.64699936	19.88581276	19.96446037	23.26738167	1.0
102	32.29800034	-18.64699936	18.64699936	19.88581276	19.96446037	23.26738167	1.0
103	32.29800034	-18.64699936	18.64699936	19.88581276	19.96446037	23.26738167	1.0
104	32.29800034	-18.64699936	18.64699936	19.88581276	19.96446037	23.26738167	1.0
[LeftHandThumb3]
101	26.52600098	-15.31499958	15.31499958	-13.14535904	5.551738262	7.967928886	1.0
102	26.52600098	-15.31499958	15.31499958	-13.14535904	5.551738262	7.967928886	1.0
103	26.52600098	-15.31499958	15.31499958	-13.14535904	5.551738262	7.967928886	1.0
104	26.52600098	-15.31499958	15.31499958	-13.14535904	5.551738262	7.967928886	1.0
[LeftHandThumb4]
101	19.54599953	-11.28499985	11.28499985	0	0	0	1.0
102	19.54599953	-11.28499985	11.28499985	0	0	0	1.0
103	19.54599953	-11.28499985	11.28499985	0	0	0	1.0
104	19.54599953	-11.28499985	11.28499985	0	0	0	1.0
[LeftHandIndex1]
101	91.09299469	-5.170999527	22.60099792	0.1480516791	-0.9618676901	-7.594518185	1.0
102	91.09299469	-5.170999527	22.60099792	0.1480516791	-0.9618676901	-7.594518185	1.0
103	91.09299469	-5.170999527	22.60099792	0.1480516791	-0.9618676901	-7.594518185	1.0
104	91.09299469	-5.170999527	22.60099792	0.1480516791	-0.9618676901	-7.594518185	1.0
[LeftHandIndex2]
101	36.76399994	0	0	-0.2667043209	1.745171905	-17.37646866	1.0
102	36.76399994	0	0	-0.2667043209	1.745171905	-17.37646866	1.0
103	36.76399994	0	0	-0.2667043209	1.745171905	-17.37646866	1.0
104	36.76399994	0	0	-0.2667043209	1.745171905	-17.37646866	1.0
[LeftHandIndex3]
101	28.83100128	0	0	-0.05742863193	0.817338407	-8.038370132	1.0
102	28.83100128	0	0	-0.05742863193	0.817338407	-8.038370132	1.0
103	28.83100128	0	0	-0.05742863193	0.817338407	-8.038370132	1.0
104	28.83100128	0	0	-0.05742863193	0.817338407	-8.038370132	1.0
[LeftHandIndex4]
101	23.92700005	0	0	0	0	0	1.0
102	23.92700005	0	0	0	0	0	1.0
103	23.92700005	0	0	0	0	0	1.0
104	23.92700005	0	0	0	0	0	1.0
[LeftHandMiddle1]
101	95.33399963	0	0	-0.7942916155	2.538622379	-15.71737862	1.0
102	95.33399963	0	0	-0.7942916155	2.538622379	-15.71737862	1.0
103	95.33399963	0	0	-0.7942916155	2.538622379	-15.71737862	1.0
104	95.33399963	0	0	-0.7942916155	2.538622379	-15.71737862	1.0
[LeftHandMiddle2]
101	36.98199844	0	0	-0.267610997	1.748071074	-17.40625954	1.0
102	36.98199844	0	0	-0.267610997	1.748071074	-17.40625954	1.0
103	36.98199844	0	0	-0.267610997	1.748071074	-17.40625954	1.0
104	36.98199844	0	0	-0.267610997	1.748071074	-17.40625954	1.0
[LeftHandMiddle3]
101	29.50900078	0	0	-0.2992140949	1.84580946	-18.41413307	1.0
102	29.50900078	0	0	-0.2992140949	1.84580946	-18.41413307	1.0
103	29.50900078	0	0	-0.2992140949	1.84580946	-18.41413307	1.0
104	29.50900078	0	0	-0.2992140949	1.84580946	-18.41413307	1.0
[LeftHandMiddle4]
101	28.3390007	0	0	0	0	0	1.0
102	28.3390007	0	0	0	0	0	1.0
103	28.3390007	0	0	0	0	0	1.0
104	28.3390007	0	0	0	0	0	1.0
[LeftHandRing1]
101	91.04499817	-0.4390000105	-18.65100098	-1.184956431	3.436642885	-21.16632462	1.0
102	91.04499817	-0.4390000105	-18.65100098	-1.184956431	3.436642885	-21.16632462	1.0
103	91.04499817	-0.4390000105	-18.65100098	-1.184956431	3.436642885	-21.16632462	1.0
104	91.04499817	-0.4390000105	-18.65100098	-1.184956431	3.436642885	-21.16632462	1.0
[LeftHandRing2]
101	31.54000092	0	0	-0.3849357069	2.085560799	-20.91281319	1.0
102	31.54000092	0	0	-0.3849357069	2.085560799	-20.91281319	1.0
103	31.54000092	0	0	-0.3849357069	2.085560799	-20.91281319	1.0
104	31.54000092	0	0	-0.3849357069	2.085560799	-20.91281319	1.0
[LeftHandRing3]
101	29.37700081	0	0	-0.2818065584	1.792707562	-17.86576271	1.0
102	29.37700081	0	0	-0.2818065584	1.792707562	-17.86576271	1.0
103	29.37700081	0	0	-0.2818065584	1.792707562	-17.86576271	1.0
104	29.37700081	0	0	-0.2818065584	1.792707562	-17.86576271	1.0
[LeftHandRing4]
101	26.47500038	0	0	0	0	0	1.0
102	26.47500038	0	0	0	0	0	1.0
103	26.47500038	0	0	0	0	0	1.0
104	26.47500038	0	0	0	0	0	1.0
[LeftHandPinky1]
101	80.77799988	-4.887000084	-38.06099701	-1.708467126	5.355370045	-27.1653862	1.0
102	80.77799988	-4.887000084	-38.06099701	-1.708467126	5.355370045	-27.1653862	1.0
103	80.77799988	-4.887000084	-38.06099701	-1.708467126	5.355370045	-27.1653862	1.0
104	80.77799988	-4.887000084	-38.06099701	-1.708467126	5.355370045	-27.1653862	1.0
[LeftHandPinky2]
101	36	0	0	-0.2676221728	1.748113751	-17.40663528	1.0
102	36	0	0	-0.2676221728	1.748113751	-17.40663528	1.0
103	36	0	0	-0.2676221728	1.748113751	-17.40663528	1.0
104	36	0	0	-0.2676221728	1.748113751	-17.40663528	1.0
[LeftHandPinky3]
101	21.14200211	0	0	-0.2408525199	1.660349369	-16.50663185	1.0
102	21.14200211	0	0	-0.2408525199	1.660349369	-16.50663185	1.0
103	21.14200211	0	0	-0.2408525199	1.660349369	-16.50663185	1.0
104	21.14200211	0	0	-0.2408525199	1.660349369	-16.50663185	1.0
[LeftHandPinky4]
101	19.75699997	0	0	0	0	0	1.0
102	19.75699997	0	0	0	0	0	1.0
103	19.75699997	0	0	0	0	0	1.0
104	19.75699997	0	0	0	0	0	1.0
[RightShoulder]
101	-45.70000076	109.4620056	-26.28000069	5.125648022	14.06420517	15.4100914	1.0
102	-45.70000076	109.4620056	-26.28000069	5.124686718	14.04115486	15.41641903	1.0
103	-45.70000076	109.4620056	-26.28000069	5.124027252	14.02197933	15.4225359	1.0
104	-45.70000076	109.4620056	-26.28000069	5.125027657	14.02401543	15.42755508	1.0
[RightArm]
101	-105.9280014	-5.248000145	-22.32099915	30.58697891	2.083061695	62.16460037	1.0
102	-105.9280014	-5.248000145	-22.32099915	30.61533737	2.068091154	62.15093613	1.0
103	-105.9280014	-5.248000145	-22.32099915	30.63998795	2.05680728	62.13767242	1.0
104	-105.9280014	-5.248000145	-22.32099915	30.64267349	2.064104557	62.12639999	1.0
[RightForeArm]
101	-278.414978	0	0	1.19602455e-05	6.554633617	1.405697958e-06	1.0
102	-278.414978	0	0	5.56477562e-06	6.550900459	8.187487765e-06	1.0
103	-278.414978	0	0	7.611071737e-07	6.547409534	1.11397585e-05	1.0
104	-278.414978	0	0	6.64969275e-06	6.547037601	-6.784562174e-06	1.0
[RightHand]
101	-283.2879944	0	0.0009999999311	-19.93923187	1.494286895	6.069551468	1.0
102	-283.2879944	0	0.0009999999311	-19.95267296	1.507551908	6.083272457	1.0
103	-283.2879944	0	0.0009999999311	-19.96672821	1.519164562	6.093404293	1.0
104	-283.2879944	0	0.0009999999311	-19.98163223	1.520397902	6.084228039	1.0
[RightHandPinky1]
101	-80.76699829	-4.885000229	-38.06000137	-1.507175922	-4.696118355	26.50587463	1.0
102	-80.76699829	-4.885000229	-38.06000137	-1.507175922	-4.696118355	26.50587463	1.0
103	-80.76699829	-4.885000229	-38.06000137	-1.507175922	-4.696118355	26.50587463	1.0
104	-80.76699829	-4.885000229	-38.06000137	-1.507175922	-4.696118355	26.50587463	1.0
[RightHandPinky2]
101	-36	0	0.0009999999311	-0.2127676606	-1.388874292	17.43785858	1.0
102	-36	0	0.0009999999311	-0.2127676606	-1.388874292	17.43785858	1.0
103	-36	0	0.0009999999311	-0.2127676606	-1.388874292	17.43785858	1.0
104	-36	0	0.0009999999311	-0.2127676606	-1.388874292	17.43785858	1.0
[RightHandPinky3]
101	-21.14200211	0	0	-0.1919144988	-1.32059598	16.53641129	1.0
102	-21.14200211	0	0	-0.1919144988	-1.32059598	16.53641129	1.0
103	-21.14200211	0	0	-0.1919144988	-1.32059598	16.53641129	1.0
104	-21.14200211	0	0	-0.1919144988	-1.32059598	16.53641129	1.0
[RightHandPinky4]
101	-19.75699997	0	0	0	0	0	1.0
102	-19.75699997	0	0	0	0	0	1.0
103	-19.75699997	0	0	0	0	0	1.0
104	-19.75699997	0	0	0	0	0	1.0
[RightHandRing1]
101	-91.03599548	-0.4390000105	-18.65100098	-1.045235753	-2.883111477	20.47788429	1.0
102	-91.03599548	-0.4390000105	-18.65100098	-1.045235753	-2.883111477	20.47788429	1.0
103	-91.03599548	-0.4390000105	-18.65100098	-1.045235753	-2.883111477	20.47788429	1.0
104	-91.03599548	-0.4390000105	-18.65100098	-1.045235753	-2.883111477	20.47788429	1.0
[RightHandRing2]
101	-31.54000092	0	0	-0.3066971898	-1.658752441	20.94926834	1.0
102	-31.54000092	0	0	-0.3066971898	-1.658752441	20.94926834	1.0
103	-31.54000092	0	0	-0.3066971898	-1.658752441	20.94926834	1.0
104	-31.54000092	0	0	-0.3066971898	-1.658752441	20.94926834	1.0
[RightHandRing3]
101	-29.37700081	0	0	-0.2245407403	-1.425854325	17.89771652	1.0
102	-29.37700081	0	0	-0.2245407403	-1.425854325	17.89771652	1.0
103	-29.37700081	0	0	-0.2245407403	-1.425854325	17.89771652	1.0
104	-29.37700081	0	0	-0.2245407403	-1.425854325	17.89771652	1.0
[RightHandRing4]
101	-26.47500038	0	0	0	0	0	1.0
102	-26.47500038	0	0	0	0	0	1.0
103	-26.47500038	0	0	0	0	0	1.0
104	-26.47500038	0	0	0	0	0	1.0
[RightHandMiddle1]
101	-95.32500458	0	0	-0.7017197609	-2.087752104	15.0152874	1.0
102	-95.32500458	0	0	-0.7017197609	-2.087752104	15.0152874	1.0
103	-95.32500458	0	0	-0.7017197609	-2.087752104	15.0152874	1.0
104	-95.32500458	0	0	-0.7017197609	-2.087752104	15.0152874	1.0
[RightHandMiddle2]
101	-36.98199844	0	0	-0.213228479	-1.390354872	17.43750381	1.0
102	-36.98199844	0	0	-0.213228479	-1.390354872	17.43750381	1.0
103	-36.98199844	0	0	-0.213228479	-1.390354872	17.43750381	1.0
104	-36.98199844	0	0	-0.213228479	-1.390354872	17.43750381	1.0
[RightHandMiddle3]
101	-29.50900078	0	0	-0.2384106964	-1.470119596	18.44692802	1.0
102	-29.50900078	0	0	-0.2384106964	-1.470119596	18.44692802	1.0
103	-29.50900078	0	0	-0.2384106964	-1.470119596	18.44692802	1.0
104	-29.50900078	0	0	-0.2384106964	-1.470119596	18.44692802	1.0
[RightHandMiddle4]
101	-28.3390007	0	0.0009999999311	0	0	0	1.0
102	-28.3390007	0	0.0009999999311	0	0	0	1.0
103	-28.3390007	0	0.0009999999311	0	0	0	1.0
104	-28.3390007	0	0.0009999999311	0	0	0	1.0
[RightHandIndex1]
101	-91.08300018	-5.167999744	22.60099792	0.1884763837	1.25192976	6.825599194	1.0
102	-91.08300018	-5.167999744	22.60099792	0.1884763837	1.25192976	6.825599194	1.0
103	-91.08300018	-5.167999744	22.60099792	0.1884763837	1.25192976	6.825599194	1.0
104	-91.08300018	-5.167999744	22.60099792	0.1884763837	1.25192976	6.825599194	1.0
[RightHandIndex2]
101	-36.76399994	0	0	-0.2125098109	-1.388050556	17.40767097	1.0
102	-36.76399994	0	0	-0.2125098109	-1.388050556	17.40767097	1.0
103	-36.76399994	0	0	-0.2125098109	-1.388050556	17.40767097	1.0
104	-36.76399994	0	0	-0.2125098109	-1.388050556	17.40767097	1.0
[RightHandIndex3]
101	-28.83100128	0	0	-0.04576345533	-0.650116384	8.053516388	1.0
102	-28.83100128	0	0	-0.04576345533	-0.650116384	8.053516388	1.0
103	-28.83100128	0	0	-0.04576345533	-0.650116384	8.053516388	1.0
104	-28.83100128	0	0	-0.04576345533	-0.650116384	8.053516388	1.0
[RightHandIndex4]
101	-23.92700005	0	0	0	0	0	1.0
102	-23.92700005	0	0	0	0	0	1.0
103	-23.92700005	0	0	0	0	0	1.0
104	-23.92700005	0	0	0	0	0	1.0
[RightHandThumb1]
101	-24.64799881	-15.72700024	26.82600021	-1.658462524	-0.2891407609	-4.221328735	1.0
102	-24.64799881	-15.72700024	26.82600021	-1.658462524	-0.2891407609	-4.221328735	1.0
103	-24.64799881	-15.72700024	26.82600021	-1.658462524	-0.2891407609	-4.221328735	1.0
104	-24.64799881	-15.72700024	26.82600021	-1.658462524	-0.2891407609	-4.221328735	1.0
[RightHandThumb2]
101	-32.29800034	-18.64699936	18.64699936	22.25259209	-23.88967514	-24.282444	1.0
102	-32.29800034	-18.64699936	18.64699936	22.25259209	-23.88967514	-24.282444	1.0
103	-32.29800034	-18.64699936	18.64699936	22.25259209	-23.88967514	-24.282444	1.0
104	-32.29800034	-18.64699936	18.64699936	22.25259209	-23.88967514	-24.282444	1.0
[RightHandThumb3]
101	-26.52600098	-15.31399918	15.31399918	-14.47830296	-6.743862152	-11.36570263	1.0
102	-26.52600098	-15.31399918	15.31399918	-14.47830296	-6.743862152	-11.36570263	1.0
103	-26.52600098	-15.31399918	15.31399918	-14.47830296	-6.743862152	-11.36570263	1.0
104	-26.52600098	-15.31399918	15.31399918	-14.47830296	-6.743862152	-11.36570263	1.0
[RightHandThumb4]
101	-19.54599953	-11.28499985	11.28499985	0	0	0	1.0
102	-19.54599953	-11.28499985	11.28499985	0	0	0	1.0
103	-19.54599953	-11.28499985	11.28499985	0	0	0	1.0
104	-19.54599953	-11.28499985	11.28499985	0	0	0	1.0
[LeftUpLeg]
101	82.07800293	-67.51699829	-15.99599934	-6.713407516	15.97024918	7.430304527	1.0
102	82.07800293	-67.51699829	-15.99599934	-6.710507393	15.96283817	7.432886124	1.0
103	82.07800293	-67.51699829	-15.99599934	-6.712728977	15.95652485	7.436197758	1.0
104	82.07800293	-67.51699829	-15.99599934	-6.742137909	15.9558773	7.443082809	1.0
[LeftLeg]
101	0	-443.7049866	2.845999956	10.91265297	1.164093852	4.576499462	1.0
102	0	-443.7049866	2.845999956	10.88550282	1.174399734	4.580396652	1.0
103	0	-443.7049866	2.845999956	10.86718464	1.182229519	4.584165096	1.0
104	0	-443.7049866	2.845999956	10.89594078	1.177811027	4.587440491	1.0
[LeftFoot]
101	0	-444.2789917	-29.8219986	1.670177698	0.70705235	-7.306735516	1.0
102	0	-444.2789917	-29.8219986	1.682719827	0.7079893351	-7.310295105	1.0
103	0	-444.2789917	-29.8219986	1.690849662	0.7086989284	-7.31384325	1.0
104	0	-444.2789917	-29.8219986	1.675310493	0.70815593	-7.317025661	1.0
[LeftToeBase]
101	0	-87.28699493	107.1060028	-4.872075081	-4.453091151e-06	6.248431418e-06	1.0
102	0	-87.28699493	107.1060028	-4.869081497	-4.81112329e-06	3.429062644e-06	1.0
103	0	-87.28699493	107.1060028	-4.867753506	-4.075760899e-06	1.284752216e-06	1.0
104	0	-87.28699493	107.1060028	-4.875202656	2.494878117e-06	3.33570415e-06	1.0
[RightUpLeg]
101	-82.07800293	-67.51699829	-15.99599934	1.071609855	-10.77843285	2.761476517	1.0
102	-82.07800293	-67.51699829	-15.99599934	1.097338676	-10.78646278	2.764162064	1.0
103	-82.07800293	-67.51699829	-15.99599934	1.116976023	-10.79058743	2.769242764	1.0
104	-82.07800293	-67.51699829	-15.99599934	1.103802919	-10.77426624	2.786575556	1.0
[RightLeg]
101	0	-443.7049866	2.861999989	7.855991364	-9.252719879	-4.549392223	1.0
102	0	-443.7049866	2.861999989	7.784913063	-9.258794785	-4.528795242	1.0
103	0	-443.7049866	2.861999989	7.723955154	-9.264023781	-4.512008667	1.0
104	0	-443.7049866	2.861999989	7.717737675	-9.264769554	-4.515394211	1.0
[RightFoot]
101	0	-444.2770081	-29.83799934	-4.244007111	-1.34607482	3.28681922	1.0
102	0	-444.2770081	-29.83799934	-4.208450317	-1.335513949	3.277483225	1.0
103	0	-444.2770081	-29.83799934	-4.177839279	-1.326872826	3.269958735	1.0
104	0	-444.2770081	-29.83799934	-4.173841476	-1.327847362	3.272102833	1.0
[RightToeBase]
101	0	-87.28699493	107.1060028	-6.888182163	-6.941226729e-06	7.179991144e-07	1.0
102	0	-87.28699493	107.1060028	-6.887690544	-1.237739252e-05	8.76405295e-07	1.0
103	0	-87.28699493	107.1060028	-6.888907433	-1.380678896e-05	7.22146865e-07	1.0
104	0	-87.28699493	107.1060028	-6.900483131	6.112753908e-06	-1.08066024e-06	1.0
[EndOfFile]
